HIERARCHY
ROOT Hips
{
	OFFSET 0.000000 88.474243 0.000000
	CHANNELS 6 Xposition Yposition Zposition Zrotation Yrotation Xrotation 
	JOINT Hips_Spine
	{
		OFFSET 0.000000 0.000000 0.000000
		CHANNELS 3 Zrotation Yrotation Xrotation
		JOINT Spine
		{
			OFFSET 0.005100 8.711998 -0.691000
			CHANNELS 3 Zrotation Yrotation Xrotation
			JOINT Spine1
			{
				OFFSET -0.009200 8.660301 -1.275000
				CHANNELS 3 Zrotation Yrotation Xrotation
				JOINT Spine2
				{
					OFFSET 0.006300 9.852501 -1.857000
					CHANNELS 3 Zrotation Yrotation Xrotation
					JOINT Spine2_Neck
					{
						OFFSET 0.000000 0.000000 0.000000
						CHANNELS 3 Zrotation Yrotation Xrotation
						JOINT Neck
						{
							OFFSET 0.016300 11.420799 -0.263300
							CHANNELS 3 Zrotation Yrotation Xrotation
							End Site #name: Head
							{
								OFFSET -0.019200 9.262405 2.362500
							}
						}
					}
					JOINT Spine2_LeftShoulder
					{
						OFFSET 0.000000 0.000000 0.000000
						CHANNELS 3 Zrotation Yrotation Xrotation
						JOINT LeftShoulder
						{
							OFFSET 5.616900 6.732201 -0.345700
							CHANNELS 3 Zrotation Yrotation Xrotation
							JOINT LeftArm
							{
								OFFSET 10.664888 -0.183372 -2.440700
								CHANNELS 3 Zrotation Yrotation Xrotation
								JOINT LeftForeArm
								{
									OFFSET 27.459126 0.000000 0.000000
									CHANNELS 3 Zrotation Yrotation Xrotation
									End Site #name: LeftHand
									{
										OFFSET 21.306858 0.000000 0.000000
									}
								}
							}
						}
					}
					JOINT Spine2_RightShoulder
					{
						OFFSET 0.000000 0.000000 0.000000
						CHANNELS 3 Zrotation Yrotation Xrotation
						JOINT RightShoulder
						{
							OFFSET -5.580300 6.737503 -0.344400
							CHANNELS 3 Zrotation Yrotation Xrotation
							JOINT RightArm
							{
								OFFSET -10.679335 -0.188484 -2.383900
								CHANNELS 3 Zrotation Yrotation Xrotation
								JOINT RightForeArm
								{
									OFFSET -27.503529 0.000000 0.000000
									CHANNELS 3 Zrotation Yrotation Xrotation
									End Site #name: RightHand
									{
										OFFSET -21.306808 0.000000 0.000000
									}
								}
							}
						}
					}
				}
			}
		}
	}
	JOINT Hips_LeftUpLeg
	{
		OFFSET 0.000000 0.000000 0.000000
		CHANNELS 3 Zrotation Yrotation Xrotation
		JOINT LeftUpLeg
		{
			OFFSET 6.857700 -6.739601 0.312100
			CHANNELS 3 Zrotation Yrotation Xrotation
			JOINT LeftLeg
			{
				OFFSET -0.367590 -34.731552 -4.572400
				CHANNELS 3 Zrotation Yrotation Xrotation
				End Site #name: LeftFoot
				{
					OFFSET 0.367590 -34.656704 -6.067400
				}
			}
		}
	}
	JOINT Hips_RightUpLeg
	{
		OFFSET 0.000000 0.000000 0.000000
		CHANNELS 3 Zrotation Yrotation Xrotation
		JOINT RightUpLeg
		{
			OFFSET -6.876100 -6.733299 0.301000
			CHANNELS 3 Zrotation Yrotation Xrotation
			JOINT RightLeg
			{
				OFFSET 0.347353 -34.795158 -4.515900
				CHANNELS 3 Zrotation Yrotation Xrotation
				End Site #name: RightFoot
				{
					OFFSET -0.347353 -34.589367 -6.070300
				}
			}
		}
	}
}
MOTION
Frames: 13
Frame Time: 0.041667
5.593155 0.744585 1.489804 -4.024423 -9.651851 -0.957677 -0.000000 0.000000 -0.000000 -0.291868 0.559926 4.233871 -0.892389 1.238619 8.547548 0.000000 0.000000 0.000000 -0.856379 1.192830 8.520541 1.613578 -2.048250 3.096849 -0.879389 1.235589 8.567612 3.274434 0.960123 0.345586 -74.572649 -11.507197 27.097987 178.614112 -86.593641 -178.789562 -0.839524 1.223123 8.518850 -4.046178 -1.820168 1.019028 78.353045 -9.726029 4.874424 -176.259032 83.753247 -176.585043 -0.000000 -0.000000 0.000000 1.567992 1.070832 -20.513797 -1.111461 0.342514 28.968815 0.000000 0.000000 -0.000000 -7.886029 0.542072 -15.533650 0.182805 -0.694629 18.994922 
5.784500 0.760472 1.504625 -3.969933 -9.860024 -0.918724 -0.000000 0.000000 -0.000000 -0.297932 0.569917 4.214684 -0.867214 1.227727 8.465245 0.000000 0.000000 0.000000 -0.838980 1.183680 8.437712 1.333397 -2.375828 3.159243 -0.857282 1.232983 8.475353 3.260461 0.947780 0.350044 -74.575810 -11.086885 26.994352 178.664946 -86.435421 -178.826314 -0.820912 1.207807 8.435276 -3.988661 -1.796058 1.018231 78.471983 -9.905977 4.603640 -176.239843 83.645978 -176.557550 -0.000000 -0.000000 -0.000000 1.399535 1.060190 -20.382095 -1.088042 0.351204 28.579702 0.000000 0.000000 -0.000000 -7.986558 0.740343 -15.592960 0.168915 -0.689582 18.763202 
5.960994 0.773223 1.515575 -3.927481 -10.050184 -0.887773 -0.000000 0.000000 -0.000000 -0.309234 0.574984 4.201940 -0.840089 1.221535 8.389845 0.000000 0.000000 0.000000 -0.817455 1.181028 8.350637 1.130119 -2.601962 3.173971 -0.835094 1.230933 8.390619 3.238057 0.921914 0.355339 -74.595044 -10.690570 26.898927 178.683050 -86.353829 -178.837003 -0.804443 1.195558 8.354292 -3.920801 -1.778349 1.018807 78.638471 -10.064137 4.353849 -176.243790 83.524513 -176.554191 -0.000000 -0.000000 -0.000000 1.250299 1.044625 -20.244131 -1.069628 0.364946 28.207412 0.000000 0.000000 -0.000000 -8.084245 0.906812 -15.631074 0.167392 -0.687461 18.545565 
6.121145 0.782130 1.521430 -3.892006 -10.225107 -0.867888 -0.000000 0.000000 -0.000000 -0.321237 0.579183 4.189333 -0.812058 1.219536 8.328967 0.000000 0.000000 0.000000 -0.798803 1.178565 8.254654 1.001830 -2.759660 3.192026 -0.815337 1.232181 8.319232 3.207205 0.889599 0.359144 -74.656827 -10.320027 26.795978 178.601378 -86.370651 -178.767654 -0.788822 1.185951 8.282868 -3.844496 -1.757336 1.020881 78.806656 -10.181582 4.162741 -176.269784 83.394771 -176.575200 -0.000000 -0.000000 -0.000000 1.112003 1.021150 -20.100347 -1.062978 0.375447 27.838579 -0.000000 0.000000 -0.000000 -8.195562 1.032572 -15.642312 0.170844 -0.697081 18.380484 
6.263735 0.788703 1.522060 -3.864689 -10.382712 -0.857829 -0.000000 0.000000 -0.000000 -0.333004 0.579601 4.177415 -0.784465 1.222558 8.286850 0.000000 0.000000 0.000000 -0.780686 1.181742 8.177790 0.912737 -2.909079 3.232976 -0.796100 1.235528 8.260683 3.183617 0.866608 0.369121 -74.739808 -9.987154 26.655688 178.425574 -86.430564 -178.604809 -0.774335 1.178932 8.225636 -3.765651 -1.736257 1.025553 78.930383 -10.281379 4.021832 -176.298585 83.267534 -176.601226 -0.000000 -0.000000 -0.000000 0.988654 0.999164 -19.950662 -1.061989 0.381541 27.512233 -0.000000 0.000000 -0.000000 -8.314816 1.115966 -15.644328 0.176321 -0.700232 18.314543 
6.384315 0.792693 1.517873 -3.831054 -10.512971 -0.861078 -0.000000 0.000000 -0.000000 -0.340815 0.586194 4.163731 -0.756447 1.228416 8.252498 0.000000 0.000000 0.000000 -0.763701 1.188407 8.113134 0.857446 -3.016666 3.258210 -0.777036 1.243264 8.213197 3.172941 0.855919 0.382169 -74.843773 -9.694615 26.489209 178.225262 -86.534518 -178.419212 -0.761003 1.176044 8.178459 -3.686177 -1.695829 1.030475 78.974666 -10.369179 3.911695 -176.330569 83.147789 -176.629184 -0.000000 -0.000000 -0.000000 0.880868 0.990144 -19.810019 -1.060372 0.390724 27.225837 -0.000000 0.000000 -0.000000 -8.437114 1.154912 -15.639351 0.181701 -0.701631 18.314288 
6.477256 0.794610 1.509612 -3.792455 -10.608687 -0.883964 -0.000000 0.000000 -0.000000 -0.343325 0.593929 4.150775 -0.729524 1.235651 8.223865 0.000000 0.000000 0.000000 -0.746749 1.198782 8.063783 0.839486 -3.093551 3.274262 -0.758271 1.252459 8.175176 3.181617 0.856604 0.395840 -74.949475 -9.466803 26.306125 178.042027 -86.668031 -178.243841 -0.747941 1.176506 8.143554 -3.628976 -1.661554 1.032585 78.948447 -10.453678 3.832266 -176.334497 83.094478 -176.628292 -0.000000 -0.000000 -0.000000 0.785962 0.997935 -19.687950 -1.052519 0.403599 27.016344 -0.000000 0.000000 -0.000000 -8.569181 1.154461 -15.618405 0.196107 -0.702265 18.322800 
6.537299 0.797666 1.499932 -3.751719 -10.664684 -0.919873 -0.000000 0.000000 -0.000000 -0.342991 0.599345 4.136137 -0.703829 1.242664 8.196543 0.000000 0.000000 0.000000 -0.729663 1.209675 8.023124 0.861799 -3.095875 3.262542 -0.739963 1.262608 8.145395 3.198803 0.860962 0.410558 -75.034663 -9.296543 26.133781 177.829237 -86.789971 -178.040974 -0.734205 1.179282 8.117173 -3.588896 -1.629368 1.037100 78.871104 -10.528494 3.792334 -176.327319 83.101534 -176.613609 -0.000000 -0.000000 -0.000000 0.710844 1.027677 -19.579607 -1.034911 0.420277 26.877986 -0.000000 0.000000 -0.000000 -8.688769 1.135286 -15.581375 0.207440 -0.707434 18.362039 
6.558583 0.802271 1.489736 -3.709845 -10.665643 -0.964385 -0.000000 0.000000 -0.000000 -0.337589 0.604068 4.119079 -0.680302 1.249376 8.173130 0.000000 0.000000 0.000000 -0.713101 1.222080 7.993277 0.909400 -3.058839 3.238871 -0.722165 1.273032 8.121033 3.214478 0.862662 0.424327 -75.087700 -9.161503 25.979405 177.525646 -86.908686 -177.743082 -0.720992 1.183352 8.102302 -3.581627 -1.601599 1.043771 78.775689 -10.597178 3.784987 -176.326082 83.098974 -176.605626 -0.000000 -0.000000 -0.000000 0.653590 1.079284 -19.515581 -1.004406 0.442919 26.829408 -0.000000 0.000000 -0.000000 -8.805146 1.097643 -15.543248 0.226420 -0.709402 18.407041 
6.535807 0.809174 1.479653 -3.628413 -10.658504 -0.999985 -0.000000 0.000000 -0.000000 -0.329939 0.602843 4.100130 -0.660025 1.254257 8.147213 0.000000 0.000000 0.000000 -0.697380 1.233310 7.971357 0.971390 -3.005466 3.190165 -0.705377 1.283791 8.103259 3.231497 0.865750 0.436862 -75.115494 -9.067392 25.845921 177.195832 -87.029525 -177.420666 -0.707444 1.188072 8.094113 -3.595670 -1.584706 1.051129 78.679090 -10.667623 3.775027 -176.332655 83.084238 -176.609444 -0.000000 -0.000000 -0.000000 0.609752 1.136241 -19.476263 -0.965170 0.468268 26.850669 -0.000000 0.000000 -0.000000 -8.900536 1.057348 -15.502898 0.244537 -0.703518 18.438191 
6.462067 0.817936 1.472840 -3.503512 -10.687573 -1.026460 0.000000 0.000000 -0.000000 -0.316579 0.602106 4.080770 -0.642814 1.258119 8.117085 0.000000 0.000000 0.000000 -0.682498 1.245058 7.950396 1.045642 -2.934046 3.132735 -0.689322 1.296529 8.086424 3.251092 0.873043 0.448285 -75.140018 -8.970587 25.737595 176.819881 -87.144459 -177.054233 -0.694068 1.194319 8.093448 -3.629173 -1.555582 1.059729 78.573713 -10.759398 3.755655 -176.357809 83.060206 -176.632072 -0.000000 -0.000000 -0.000000 0.579671 1.185476 -19.448459 -0.923072 0.490862 26.904240 -0.000000 0.000000 -0.000000 -8.973140 1.017485 -15.470269 0.261345 -0.694367 18.462157 
6.329659 0.828922 1.471053 -3.346063 -10.727553 -1.052776 0.000000 0.000000 -0.000000 -0.301835 0.601860 4.067373 -0.630133 1.261286 8.083689 0.000000 0.000000 0.000000 -0.666980 1.257162 7.930697 1.118430 -2.838388 3.044828 -0.675565 1.310913 8.072104 3.268350 0.878114 0.456982 -75.155909 -8.860913 25.659451 176.413898 -87.276805 -176.655370 -0.682450 1.202387 8.098894 -3.697936 -1.539936 1.068500 78.469114 -10.860715 3.732487 -176.409333 83.018537 -176.676983 -0.000000 -0.000000 -0.000000 0.550277 1.215466 -19.408856 -0.887567 0.507501 26.972960 -0.000000 0.000000 -0.000000 -9.003776 0.970064 -15.441027 0.268053 -0.674770 18.464289 
6.131582 0.843037 1.477172 -3.166915 -10.712863 -1.087901 0.000000 0.000000 -0.000000 -0.287770 0.602753 4.062728 -0.620042 1.265161 8.045345 0.000000 0.000000 0.000000 -0.653407 1.269843 7.916351 1.187672 -2.708910 2.925800 -0.662889 1.326444 8.060092 3.295428 0.891604 0.461499 -75.171907 -8.718557 25.598673 175.928632 -87.444795 -176.175758 -0.672097 1.212026 8.105534 -3.781939 -1.528686 1.079324 78.376168 -10.959472 3.711041 -176.474911 82.978054 -176.735462 -0.000000 -0.000000 -0.000000 0.539871 1.230240 -19.341154 -0.859508 0.520234 26.998736 -0.000000 0.000000 -0.000000 -8.976692 0.938245 -15.383205 0.265923 -0.655134 18.435237 
